<?xml version="1.0" encoding="UTF-8" standalone="no"?>
<svg version="1.1" preserveAspectRatio="xMidYMid meet" xmlns="http://www.w3.org/2000/svg" xmlns:xlink="http://www.w3.org/1999/xlink" viewBox="0 0 1000 1000" width="1000" height="1000">
	<defs>
		<path d="M500.000,172.901 A0.000,0.000 0 0 1 500.000,172.901 L783.276,336.450 A0.000,0.000 0 0 1 783.276,336.450 L783.276,663.550 A0.000,0.000 0 0 1 783.276,663.550 L500.000,827.099 A0.000,0.000 0 0 1 500.000,827.099 L216.724,663.550 A0.000,0.000 0 0 1 216.724,663.550 L216.724,336.450 A0.000,0.000 0 0 1 216.724,336.450 Z" stroke-linecap="round" stroke-linejoin="round" stroke-miterlimit="25" id="def-890febc8-7ea4-4d67-9117-8aa3b590ba37"></path>
		<g id="def-ce081e5c-7b97-4e79-a211-a20c6ae26bcc">
			<use xlink:href="#def-890febc8-7ea4-4d67-9117-8aa3b590ba37" fill="none" stroke="#000" stroke-width="9.252"></use>
		</g>
		<g transform="matrix(3.374, 0.000, 0.000, 3.374, 406.191, 339.377)" fill="#fff" stroke="none" stroke-width="1" id="def-e25626cd-8349-4dcd-9f0b-0723e994de4a">
			<g transform="translate(-22.20000000000001, -2.3999999999999986)">
				<g>
					<path d=" M70.5,25.9 c-3.5,0 -6.3,2.8 -6.3,6.3 v13.2 h-6.3 V9.2 c0 -3.5 -2.8 -6.3 -6.3 -6.3 h-3.7 c-3.5,0 -6.3,2.8 -6.3,6.3 v36.2 h-6.3 V23.2 c0 -3.5 -2.8 -6.3 -6.3 -6.3 s-6.3,2.8 -6.3,6.3 v29.7 c0,4.1,3.4,7.5,7.5,7.5 h11.5 v29.8 c0,3.5,2.8,6.3,6.3,6.3 h3.7 c3.5,0,6.3 -2.8,6.3 -6.3 V60.4 h11.5 c4.1,0,7.5 -3.3,7.5 -7.5 l0 -20.7 C76.8,28.7,74,25.9,70.5,25.9 z M72,33.5 c0,0 -0.1,0 -0.1,0 c-0.1,0 -0.2,0 -0.2 -0.1 L70,31 c-0.1 -0.1 -0.1 -0.3,0.1 -0.3 c0.1 -0.1,0.3 -0.1,0.3,0.1 l1.7,2.4 C72.2,33.2,72.2,33.4,72,33.5 z M71.9,36 l-2.7,1.2 c0,0 -0.1,0 -0.1,0 c-0.1,0 -0.2 -0.1 -0.2 -0.1 c-0.1 -0.1,0 -0.3,0.1 -0.3 l2.7 -1.2 c0.1 -0.1,0.3,0,0.3,0.1 C72.1,35.8,72.1,35.9,71.9,36 z M70.1,41.2 c0.1 -0.1,0.3,0,0.3,0.1 c0.1,0.1,0,0.3 -0.1,0.3 l-2.6,1.5 c0,0 -0.1,0 -0.1,0 c-0.1,0 -0.2,0 -0.2 -0.1 c-0.1 -0.1,0 -0.3,0.1 -0.3 L70.1,41.2 z M67.6,48.3 c0.1 -0.1,0.3 -0.1,0.4,0 l2.3,2.1 c0.1,0.1,0.1,0.3,0,0.4 c0,0.1 -0.1,0.1 -0.2,0.1 c-0.1,0 -0.1,0 -0.2 -0.1 l-2.3 -2.1 C67.5,48.6,67.5,48.5,67.6,48.3 z M67.8,55.5 l1.9 -2.2 c0.1 -0.1,0.2 -0.1,0.4,0 c0.1,0.1,0.1,0.2,0,0.4 l-1.9,2.2 c0,0.1 -0.1,0.1 -0.2,0.1 c-0.1,0 -0.1,0 -0.2 -0.1 C67.7,55.7,67.7,55.6,67.8,55.5 z M71.6,47.9 c-0.1,0 -0.2,0 -0.2 -0.1 c-0.1 -0.1,0 -0.3,0.1 -0.3 l2.6 -1.5 c0.1 -0.1,0.3,0,0.3,0.1 c0.1,0.1,0,0.3 -0.1,0.3 l-2.6,1.5 C71.7,47.9,71.7,47.9,71.6,47.9 z M63.6,54.3 c0.1 -0.1,0.3,0,0.3,0.1 c0.1,0.1,0,0.3 -0.1,0.3 L61.2,56 c0,0 -0.1,0 -0.1,0 c-0.1,0 -0.2 -0.1 -0.2 -0.1 c-0.1 -0.1,0 -0.3,0.1 -0.3 L63.6,54.3 z M61.2,49.2 c0.1 -0.1,0.2 -0.1,0.3 -0.1 l1.9,1.4 c0.1,0.1,0.1,0.2,0.1,0.3 c0,0.1 -0.1,0.1 -0.2,0.1 c-0.1,0 -0.1,0 -0.1,0 l-1.9 -1.4 C61.2,49.5,61.2,49.3,61.2,49.2 z M57.4,53 L57,55.8 c0,0.1 -0.1,0.2 -0.2,0.2 c0,0,0,0,0,0 c-0.1,0 -0.2 -0.1 -0.2 -0.3 l0.4 -2.8 c0 -0.1,0.1 -0.2,0.3 -0.2 C57.3,52.8,57.4,52.9,57.4,53 z M51.2,82.7 c-0.1,0 -0.2 -0.1 -0.2 -0.2 s0.1 -0.2,0.2 -0.2 h2.7 c0.1,0,0.2,0.1,0.2,0.2 s-0.1,0.2 -0.2,0.2 H51.2 z M52.9,86.6 l-0.4,2.8 c0,0.1 -0.1,0.2 -0.2,0.2 c0,0,0,0,0,0 c-0.1,0 -0.2 -0.1 -0.2 -0.3 l0.4 -2.8 c0 -0.1,0.1 -0.2,0.3 -0.2 C52.8,86.4,52.9,86.5,52.9,86.6 z M51.8,66.8 c-0.1 -0.1 -0.1 -0.2 -0.1 -0.3 c0.1 -0.1,0.2 -0.1,0.3 -0.1 l1.9,1.4 c0.1,0.1,0.1,0.2,0.1,0.3 c0,0.1 -0.1,0.1 -0.2,0.1 c-0.1,0 -0.1,0 -0.1,0 L51.8,66.8 z M53.6,71.7 l-0.4,2.8 c0,0.1 -0.1,0.2 -0.2,0.2 c0,0,0,0,0,0 c-0.1,0 -0.2 -0.1 -0.2 -0.3 l0.4 -2.8 c0 -0.1,0.1 -0.2,0.3 -0.2 C53.5,71.4,53.6,71.6,53.6,71.7 z M50.1,55.1 c0,0 -0.1,0 -0.1,0 c-0.1,0 -0.2,0 -0.2 -0.1 c-0.1 -0.1,0 -0.3,0.1 -0.3 l2.6 -1.5 c0.1 -0.1,0.3,0,0.3,0.1 c0.1,0.1,0,0.3 -0.1,0.3 L50.1,55.1 z M47.1,65.5 c0,0 -0.1,0 -0.1,0 c-0.1,0 -0.2 -0.1 -0.2 -0.1 c-0.1 -0.1,0 -0.3,0.1 -0.3 l2.7 -1.2 c0.1 -0.1,0.3,0,0.3,0.1 c0.1,0.1,0,0.3 -0.1,0.3 L47.1,65.5 z M49.3,85.9 c0,0.1 -0.1,0.2 -0.2,0.2 h-2.7 c-0.1,0 -0.2 -0.1 -0.2 -0.2 s0.1 -0.2,0.2 -0.2 h2.7 C49.2,85.6,49.3,85.7,49.3,85.9 z M47.9,70.3 l-0.4,2.8 c0,0.1 -0.1,0.2 -0.2,0.2 c0,0,0,0,0,0 c-0.1,0 -0.2 -0.1 -0.2 -0.3 l0.4 -2.8 c0 -0.1,0.1 -0.2,0.3 -0.2 C47.8,70,47.9,70.2,47.9,70.3 z M49.5,49.4 c0.1,0,0.3,0.1,0.3,0.2 c0,0.1 -0.1,0.3 -0.2,0.3 l-2.3,0.2 c0,0,0,0,0,0 c-0.1,0 -0.2 -0.1 -0.2 -0.2 c0 -0.1,0.1 -0.3,0.2 -0.3 L49.5,49.4 z M48,41.6 c0.1 -0.1,0.3,0,0.3,0.1 l1.5,2.4 c0.1,0.1,0,0.3 -0.1,0.3 c0,0 -0.1,0 -0.1,0 c-0.1,0 -0.2,0 -0.2 -0.1 L47.9,42 C47.8,41.9,47.9,41.7,48,41.6 z M48.6,59.2 c0.1 -0.1,0.3,0,0.3,0.1 c0.1,0.1,0,0.3 -0.1,0.3 l-2.7,1.2 c0,0 -0.1,0 -0.1,0 c-0.1,0 -0.2 -0.1 -0.2 -0.1 c-0.1 -0.1,0 -0.3,0.1 -0.3 L48.6,59.2 z M51.1,33.2 c-0.1 -0.1 -0.1 -0.3,0 -0.4 c0.1 -0.1,0.3 -0.1,0.4,0 l2.3,2.1 c0.1,0.1,0.1,0.3,0,0.4 c0,0.1 -0.1,0.1 -0.2,0.1 c-0.1,0 -0.1,0 -0.2 -0.1 L51.1,33.2 z M53.2,24.6 l-1.7 -2.4 c-0.1 -0.1 -0.1 -0.3,0.1 -0.3 c0.1 -0.1,0.3 -0.1,0.3,0.1 l1.7,2.4 c0.1,0.1,0.1,0.3 -0.1,0.3 c0,0 -0.1,0 -0.1,0 C53.3,24.7,53.2,24.7,53.2,24.6 z M53.6,10.3 l-1.4 -2 c-0.1 -0.1 -0.1 -0.3,0.1 -0.3 c0.1 -0.1,0.3 -0.1,0.3,0.1 l1.4,2 c0.1,0.1,0.1,0.3 -0.1,0.3 c0,0 -0.1,0 -0.1,0 C53.8,10.4,53.7,10.3,53.6,10.3 z M53,14.6 c0.1 -0.1,0.3,0,0.3,0.1 c0.1,0.1,0,0.3 -0.1,0.3 l-2.6,1.5 c0,0 -0.1,0 -0.1,0 c-0.1,0 -0.2,0 -0.2 -0.1 c-0.1 -0.1,0 -0.3,0.1 -0.3 L53,14.6 z M52.4,27.9 c0.1 -0.1,0.3,0,0.3,0.1 c0.1,0.1,0,0.3 -0.1,0.3 l-2.6,1.5 c0,0 -0.1,0 -0.1,0 c-0.1,0 -0.2,0 -0.2 -0.1 c-0.1 -0.1,0 -0.3,0.1 -0.3 L52.4,27.9 z M50.4,36.9 c0.1,0,0.3,0.1,0.3,0.2 c0,0.1 -0.1,0.3 -0.2,0.3 l-2.7,0.2 c0,0,0,0,0,0 c-0.1,0 -0.2 -0.1 -0.2 -0.2 c0 -0.1,0.1 -0.3,0.2 -0.3 L50.4,36.9 z M46.7,24.1 l1.9 -2.2 c0.1 -0.1,0.2 -0.1,0.4,0 c0.1,0.1,0.1,0.2,0,0.4 l-1.9,2.2 c0,0.1 -0.1,0.1 -0.2,0.1 c-0.1,0 -0.1,0 -0.2 -0.1 C46.6,24.4,46.6,24.2,46.7,24.1 z M46.5,17.4 c-0.1 -0.1 -0.1 -0.3,0 -0.4 c0.1 -0.1,0.3 -0.1,0.4,0 l2.3,2.1 c0.1,0.1,0.1,0.3,0,0.4 c0,0.1 -0.1,0.1 -0.2,0.1 c-0.1,0 -0.1,0 -0.2 -0.1 L46.5,17.4 z M49.2,10.3 l-2.6,1.5 c0,0 -0.1,0 -0.1,0 c-0.1,0 -0.2,0 -0.2 -0.1 c-0.1 -0.1,0 -0.3,0.1 -0.3 L49,9.9 c0.1 -0.1,0.3,0,0.3,0.1 C49.4,10.1,49.4,10.3,49.2,10.3 z M47.7,30.7 c0.1,0.1,0.1,0.3 -0.1,0.3 c0,0 -0.1,0 -0.1,0 c-0.1,0 -0.2,0 -0.2 -0.1 l-1.7 -2.4 c-0.1 -0.1 -0.1 -0.3,0.1 -0.3 s0.3 -0.1,0.3,0.1 L47.7,30.7 z M45.9,54.7 c0.1,0.1,0,0.3 -0.1,0.3 c0,0 -0.1,0 -0.1,0 c-0.1,0 -0.2,0 -0.2 -0.1 L44,52.4 c-0.1 -0.1,0 -0.3,0.1 -0.3 c0.1 -0.1,0.3,0,0.3,0.1 L45.9,54.7 z M46,76.9 h2.7 c0.1,0,0.2,0.1,0.2,0.2 s-0.1,0.2 -0.2,0.2 H46 c-0.1,0 -0.2 -0.1 -0.2 -0.2 S45.9,76.9,46,76.9 z M45.8,91.5 c0.1 -0.1,0.2 -0.1,0.3 -0.1 l1.9,1.4 c0.1,0.1,0.1,0.2,0.1,0.3 c0,0.1 -0.1,0.1 -0.2,0.1 c-0.1,0 -0.1,0 -0.1,0 l-1.9 -1.4 C45.8,91.8,45.7,91.6,45.8,91.5 z M52.2,61.4 c-0.1 -0.1 -0.1 -0.2 -0.1 -0.3 c0.1 -0.1,0.2 -0.1,0.3 -0.1 l1.9,1.4 c0.1,0.1,0.1,0.2,0.1,0.3 c0,0.1 -0.1,0.1 -0.2,0.1 c-0.1,0 -0.1,0 -0.1,0 L52.2,61.4 z M54.4,51.3 C54.4,51.3,54.4,51.3,54.4,51.3 c-0.2,0 -0.3 -0.1 -0.3 -0.2 l-0.2 -2.3 c0 -0.1,0.1 -0.3,0.2 -0.3 c0.1,0,0.3,0.1,0.3,0.2 l0.2,2.3 C54.6,51.2,54.5,51.3,54.4,51.3 z M40.5,54.1 c0.1 -0.1,0.3,0,0.3,0.1 l1.5,2.6 c0.1,0.1,0,0.3 -0.1,0.3 c0,0 -0.1,0 -0.1,0 c-0.1,0 -0.2,0 -0.2 -0.1 l-1.5 -2.6 C40.3,54.4,40.4,54.2,40.5,54.1 z M38,51.5 c0,0 -0.1,0 -0.1,0 c-0.1,0 -0.2 -0.1 -0.2 -0.1 c-0.1 -0.1,0 -0.3,0.1 -0.3 l2.7 -1.2 c0.1 -0.1,0.3,0,0.3,0.1 c0.1,0.1,0,0.3 -0.1,0.3 L38,51.5 z M35.5,56.5 c0,0 -0.1,0 -0.1,0 c-0.1,0 -0.2 -0.1 -0.2 -0.1 L34,53.7 c-0.1 -0.1,0 -0.3,0.1 -0.3 c0.1 -0.1,0.3,0,0.3,0.1 l1.2,2.7 C35.7,56.3,35.7,56.4,35.5,56.5 z M28.8,29.9 c-0.1,0 -0.2 -0.1 -0.2 -0.2 s0.1 -0.2,0.2 -0.2 h2.3 c0.1,0,0.2,0.1,0.2,0.2 s-0.1,0.2 -0.2,0.2 H28.8 z M30.8,48.1 c0,0 -0.1,0 -0.1,0 c-0.1,0 -0.2,0 -0.2 -0.1 l-1.7 -2.4 c-0.1 -0.1 -0.1 -0.3,0.1 -0.3 s0.3 -0.1,0.3,0.1 l1.7,2.4 C30.9,47.8,30.9,48,30.8,48.1 z M29,37.8 c0,0 -0.1,0 -0.1,0 c-0.1,0 -0.2,0 -0.2 -0.1 l-1.3 -2.5 c-0.1 -0.1,0 -0.3,0.1 -0.3 c0.1 -0.1,0.3,0,0.3,0.1 l1.3,2.5 C29.1,37.6,29.1,37.8,29,37.8 z M28.9,24.6 l-2.7,1.2 c0,0 -0.1,0 -0.1,0 c-0.1,0 -0.2 -0.1 -0.2 -0.1 c-0.1 -0.1,0 -0.3,0.1 -0.3 l2.7 -1.2 c0.1 -0.1,0.3,0,0.3,0.1 C29.1,24.4,29.1,24.5,28.9,24.6 z M26.2,41.9 h2.7 c0.1,0,0.2,0.1,0.2,0.2 s-0.1,0.2 -0.2,0.2 h-2.7 c-0.1,0 -0.2 -0.1 -0.2 -0.2 S26,41.9,26.2,41.9 z M27.8,51.4 l2.7 -1.2 c0.1 -0.1,0.3,0,0.3,0.1 c0.1,0.1,0,0.3 -0.1,0.3 L28,51.8 c0,0 -0.1,0 -0.1,0 c-0.1,0 -0.2 -0.1 -0.2 -0.1 C27.6,51.6,27.7,51.4,27.8,51.4 z M29.3,55.4 c-0.1,0 -0.2,0 -0.2 -0.1 C29,55.2,29,55.1,29.1,55 l2.4 -1.7 c0.1 -0.1,0.3 -0.1,0.3,0.1 c0.1,0.1,0.1,0.3 -0.1,0.3 l-2.4,1.7 C29.4,55.4,29.3,55.4,29.3,55.4 z M72.6,53.5 c-0.1 -0.1 -0.1 -0.3,0.1 -0.3 s0.3 -0.1,0.3,0.1 l1.3,1.9 l0.3,0.5 c0.1,0.1,0.1,0.3 -0.1,0.3 c0,0 -0.1,0 -0.1,0 c-0.1,0 -0.2,0 -0.2 -0.1 l-0.2 -0.3 L72.6,53.5 z"></path>
				</g>
			</g>
		</g>
		<mask id="mask-809b087e-729e-4395-977d-9f8fbf102a51" x="48.384" y="48.384" width="903.232" height="903.232" maskUnits="userSpaceOnUse" stroke-width="0">
			<rect x="89.440" y="89.440" width="821.120" height="821.120" fill="#fff"></rect>
			<use xlink:href="#def-ce081e5c-7b97-4e79-a211-a20c6ae26bcc"></use>
		</mask>
		<g mask="url(#mask-809b087e-729e-4395-977d-9f8fbf102a51)" id="def-caaa3104-9f53-465e-ad59-381f656f75bd">
			<use xlink:href="#def-890febc8-7ea4-4d67-9117-8aa3b590ba37" stroke-width="30.068"></use>
		</g>
		<mask id="mask-d51bc68a-bd61-4aed-8a06-48082c46ccc5" x="48.384" y="48.384" width="903.232" height="903.232" maskUnits="userSpaceOnUse" stroke-width="0">
			<rect x="89.440" y="89.440" width="821.120" height="821.120" fill="#000"></rect>
			<use xlink:href="#def-caaa3104-9f53-465e-ad59-381f656f75bd" fill="#fff" stroke="#fff"></use>
		</mask>
		<mask id="mask-b905d8dd-50da-4ec6-9867-f22aa137eece" x="396.810" y="329.996" width="206.380" height="340.008" maskUnits="userSpaceOnUse" stroke-width="0">
			<rect x="406.191" y="339.377" width="187.619" height="321.246" fill="#000"></rect>
			<use xlink:href="#def-e25626cd-8349-4dcd-9f0b-0723e994de4a" fill="#fff" stroke="#fff"></use>
		</mask>
		<pattern patternUnits="userSpaceOnUse" patternContentUnits="userSpaceOnUse" patternTransform="rotate(90.000, 500.000, 500.000) translate(500.000, 500.000) scale(1) translate(-500.000, -500.000)" id="def-ccddcafb-c3ff-4874-9d04-cac240f06740" x="481.327" y="490.418" width="37.346" height="19.164" viewBox="0 0 37.346 19.164">
			<path d="M-18.673,-10.542 L18.673,-19.164 L56.018,-10.542 M-18.673,8.622 L18.673,0.000 L56.018,8.622 M-18.673,27.786 L18.673,19.164 L56.018,27.786" fill="none" stroke="#f3c500" stroke-width="2.273" stroke-opacity="0.300" stroke-linecap="square"></path>
		</pattern>
	</defs>
	<g mask="url(#mask-d51bc68a-bd61-4aed-8a06-48082c46ccc5)">
		<rect x="89.440" y="89.440" width="821.120" height="821.120" fill="#1e90ff"></rect>
	</g>
	<g mask="url(#mask-b905d8dd-50da-4ec6-9867-f22aa137eece)">
		<rect x="406.191" y="339.377" width="187.619" height="321.246" fill="#5bb201"></rect>
		<g>
			<rect x="406.19073486328125" y="339.37689208984375" width="187.6185831069945" height="321.24620704650874" fill="url(#def-ccddcafb-c3ff-4874-9d04-cac240f06740)"></rect>
		</g>
	</g>
</svg>
